<svg xmlns="http://www.w3.org/2000/svg" width="58" height="39"><defs><filter id="a" width="129.6%" height="145.7%" x="-14.8%" y="-22.9%" filterUnits="objectBoundingBox"><feOffset dy="2" in="SourceAlpha" result="shadowOffsetOuter1"/><feGaussianBlur in="shadowOffsetOuter1" result="shadowBlurOuter1" stdDeviation="1"/><feColorMatrix in="shadowBlurOuter1" result="shadowMatrixOuter1" values="0 0 0 0 0 0 0 0 0 0 0 0 0 0 0 0 0 0 0.117385643 0"/><feMerge><feMergeNode in="shadowMatrixOuter1"/><feMergeNode in="SourceGraphic"/></feMerge></filter></defs><g fill="none"><path fill="#FFF" d="M52.2 35H1.8C.808 35 0 34.165 0 33.134V1.866C0 .836.807 0 1.8 0h50.4c.993 0 1.8.835 1.8 1.866v31.268c0 1.03-.807 1.866-1.8 1.866z" filter="url(#a)" transform="translate(2)"/><path fill="#FFF" d="M18.927 17.236v-.549l-.258.549h-2.225l-.28-.589v.589h-4.16l-.491-1.188h-.833l-.52 1.188H8v-3.584l1.584-3.65h3.026l.426 1.033v-1.027h3.703l.814 1.742.796-1.75h11.69s.613-.007 1.015.282l-.001-.28h2.943v.395s.53-.396 1.313-.396h5.196l.457 1.049V10h3.329l.605 1.049V10h3.183v7.242h-3.27l-.77-1.262v1.255h-4.063l-.572-1.293h-.797l-.537 1.293h-2.458s-.918-.011-1.607-.514v.514H29.11v-1.69c0-.245-.185-.228-.185-.228h-.178v1.918h-9.819zm-2.444 1.569h6.436l.927 1.072.95-1.072h4.949s.465.01.907.252v-.252h4.405c.559 0 1.03.285 1.03.285v-.285h5.663v.262s.402-.262.945-.262h3.69v.262s.464-.262.956-.262h2.897v6.824s-.381.44-1.17.44H45.25v-.217s-.363.216-.918.216H34.19v-1.763c0-.174-.076-.206-.227-.206h-.14v1.97h-3.17v-1.956s-.353.193-.94.193h-1.14v1.763h-3.908l-.89-1.107-.95 1.106h-6.34v-7.263z"/><path fill="#0078A9" d="M36.766 19.893h4.038v1.105h-2.801v.965h2.723v.974h-2.723v1.014h2.8v1.077h-4.036l-.001-5.135zm11.84 2c1.518.08 1.645.855 1.645 1.68 0 .962-.775 1.478-1.583 1.478h-2.595V23.95h2.022c.342 0 .853 0 .853-.492 0-.234-.09-.383-.455-.423a14.259 14.259 0 00-.853-.059c-1.371-.037-1.691-.733-1.691-1.58 0-.964.663-1.49 1.471-1.49h2.596v1.101h-1.9c-.431.005-.897-.052-.897.445 0 .316.23.38.523.408.1 0 .774.036.864.035zm-4.651 0c1.518.08 1.647.855 1.647 1.68 0 .962-.777 1.478-1.585 1.478h-2.595V23.95h2.022c.343 0 .854 0 .854-.492 0-.234-.09-.383-.455-.423a14.259 14.259 0 00-.854-.059c-1.371-.037-1.69-.733-1.69-1.58 0-.964.662-1.49 1.472-1.49h2.594v1.101h-1.898c-.432.005-.899-.052-.899.445 0 .316.23.38.523.408.101 0 .775.036.864.035zm-15.062.346h-1.54v-1.233h1.544c.517 0 .68.34.68.591 0 .345-.18.642-.684.642zm-2.785 2.307l-1.776-2.143 1.776-2.005v4.148zm-4.724-.595h-2.847v-1.014h2.724v-.974h-2.724v-.965l3.005.008 1.201 1.397-1.359 1.548zm7.925-4.047h-4.337l-1.415 1.594-1.37-1.605H17.32v5.135h4.712l1.482-1.696 1.448 1.708h2.371v-1.744h1.66c.642 0 1.81-.022 1.81-1.821 0-1.284-.887-1.57-1.493-1.57zm4.9 2.267H32.67v-1.165h1.544c.517 0 .68.34.68.59 0 .345-.18.575-.685.575zm1.067.53c.675-.343.853-.802.853-1.42 0-1.1-.875-1.375-1.483-1.375h-3.211v5.134h1.235v-1.813h1.617c.427 0 .596.436.606.871l.034.941h1.202l-.045-1.055c0-.827-.224-1.215-.81-1.284l.002.001zm-3.346-6.532h1.235v-5.138H31.93v5.138zm-10.113-5.134h4.037v1.106h-2.801v.963h2.723v.974h-2.723v1.014h2.8v1.077h-4.036v-5.134zm7.546 2.265h-1.54v-1.163h1.545c.516 0 .679.337.679.59 0 .344-.18.573-.684.573zm1.066.531c.675-.343.853-.801.853-1.421 0-1.101-.875-1.375-1.482-1.375h-3.213v5.134h1.237v-1.81h1.615c.428 0 .597.435.608.87l.034.94h1.201l-.044-1.054c0-.826-.224-1.215-.81-1.284h.001zm-20.165.084l.737-1.795.767 1.795h-1.504zm8.703-2.879l-1.514 3.444-1.512-3.444h-1.935v4.945l-2.16-4.946h-1.633l-2.2 5.134h1.302l.482-1.146h2.468l.488 1.146h2.488v-3.81l1.65 3.81h1.123l1.69-3.747v3.747h1.236v-5.134h-1.971l-.002.001zm19.358 2.882l.736-1.795.775 1.795h-1.51zm7.587-2.886v3.556l-2.081-3.555h-1.827v4.822l-2.105-4.82h-1.633l-1.701 3.977s-.72 0-.791-.018c-.3-.062-.764-.275-.77-1.182v-.372c0-1.204.64-1.292 1.46-1.292h.764v-1.116h-1.614c-.561 0-1.782.438-1.823 2.547-.027 1.422.577 2.593 1.948 2.593h1.63l.481-1.146h2.465l.489 1.146h2.437v-3.76l2.223 3.761h1.685v-5.142h-1.237z"/></g></svg>