<svg xmlns="http://www.w3.org/2000/svg" width="58" height="39"><defs><filter id="a" width="129.6%" height="145.7%" x="-14.8%" y="-22.9%" filterUnits="objectBoundingBox"><feOffset dy="2" in="SourceAlpha" result="shadowOffsetOuter1"/><feGaussianBlur in="shadowOffsetOuter1" result="shadowBlurOuter1" stdDeviation="1"/><feColorMatrix in="shadowBlurOuter1" result="shadowMatrixOuter1" values="0 0 0 0 0 0 0 0 0 0 0 0 0 0 0 0 0 0 0.117385643 0"/><feMerge><feMergeNode in="shadowMatrixOuter1"/><feMergeNode in="SourceGraphic"/></feMerge></filter></defs><g fill="none"><path fill="#FFF" d="M52.2 35H1.8C.808 35 0 34.165 0 33.134V1.866C0 .836.807 0 1.8 0h50.4c.993 0 1.8.835 1.8 1.866v31.268c0 1.03-.807 1.866-1.8 1.866z" filter="url(#a)" transform="translate(2)"/><path fill="#231F20" d="M20.337 28.565v-1.5a.89.89 0 00-.94-.95.925.925 0 00-.84.425.877.877 0 00-.79-.425.79.79 0 00-.7.355v-.295h-.52v2.39h.525V27.25a.56.56 0 01.585-.635c.345 0 .52.225.52.63v1.33h.525V27.25a.562.562 0 01.585-.635c.355 0 .525.225.525.63v1.33l.525-.01zm7.768-2.39h-.855v-.725h-.525v.725h-.475v.475h.485v1.1c0 .555.215.885.83.885.23 0 .455-.063.65-.185l-.15-.445a.96.96 0 01-.46.135c-.25 0-.345-.16-.345-.4v-1.09h.85l-.005-.475zm4.435-.06a.705.705 0 00-.63.35v-.29h-.515v2.39h.52v-1.34c0-.395.17-.615.5-.615a.847.847 0 01.325.06l.16-.5a1.112 1.112 0 00-.37-.065l.01.01zm-6.705.25a1.788 1.788 0 00-.975-.25c-.605 0-1 .29-1 .765 0 .39.29.63.825.705l.25.035c.285.04.42.115.42.25 0 .185-.19.29-.545.29a1.273 1.273 0 01-.795-.25l-.25.405c.303.211.666.32 1.035.31.69 0 1.09-.325 1.09-.78s-.315-.64-.835-.715l-.25-.035c-.225-.03-.405-.075-.405-.235 0-.16.17-.28.455-.28.263.003.522.074.75.205l.23-.42zm13.927-.25a.705.705 0 00-.63.35v-.29h-.515v2.39h.52v-1.34c0-.395.17-.615.5-.615a.847.847 0 01.325.06l.16-.5a1.112 1.112 0 00-.37-.065l.01.01zm-6.7 1.25a1.207 1.207 0 001.275 1.25c.313.016.62-.086.86-.285l-.25-.42a1.05 1.05 0 01-.625.215.768.768 0 010-1.53c.227.003.446.078.625.215l.25-.42c-.24-.2-.547-.3-.86-.285a1.208 1.208 0 00-1.275 1.25v.01zm4.87 0v-1.19h-.52v.29a.908.908 0 00-.75-.35 1.25 1.25 0 000 2.5.91.91 0 00.75-.35v.29h.52v-1.19zm-1.935 0a.723.723 0 111.443.085.723.723 0 01-1.443-.085zm-6.275-1.25a1.25 1.25 0 00.035 2.5c.36.018.714-.097.993-.325l-.25-.385a1.137 1.137 0 01-.695.25.663.663 0 01-.715-.585h1.775v-.2c0-.75-.465-1.25-1.135-1.25l-.008-.005zm0 .465a.592.592 0 01.605.58h-1.25a.615.615 0 01.635-.58h.01zm13.028.79v-2.155h-.5v1.25a.908.908 0 00-.75-.35 1.25 1.25 0 000 2.5c.292.01.57-.12.75-.35v.29h.5V27.37zm.867.848a.25.25 0 01.173.067.232.232 0 01-.078.385.235.235 0 01-.095.02.25.25 0 01-.225-.145.235.235 0 01.053-.26.25.25 0 01.18-.067h-.008zm0 .422a.177.177 0 00.13-.055.185.185 0 000-.25.185.185 0 00-.13-.055.188.188 0 00-.132.055.185.185 0 000 .25c.017.017.038.03.06.04a.2.2 0 00.08.015h-.008zm.015-.297a.1.1 0 01.065.02.062.062 0 01.023.052.06.06 0 01-.018.045.087.087 0 01-.052.023l.072.082h-.057l-.068-.082h-.022v.082h-.048v-.22l.105-.002zm-.055.042v.06h.055c.01.003.02.003.03 0a.025.025 0 000-.023.025.025 0 000-.022.052.052 0 00-.03 0l-.055-.015zm-2.75-1.015a.723.723 0 111.443.085.723.723 0 01-1.443-.085zm-17.557 0v-1.195h-.52v.29a.908.908 0 00-.75-.35 1.25 1.25 0 000 2.5c.292.01.57-.12.75-.35v.29h.52V27.37zm-1.935 0a.723.723 0 11.725.765.718.718 0 01-.73-.765h.005z"/><path fill="#FF5F00" d="M25.662 7.962h7.875v14.152h-7.875z"/><path fill="#EB001B" d="M26.163 15.04A8.985 8.985 0 0129.6 7.963a9 9 0 100 14.152 8.985 8.985 0 01-3.438-7.075z"/><path fill="#F79E1B" d="M44.163 15.04A9 9 0 0129.6 22.115a9 9 0 000-14.152 9 9 0 0114.562 7.074v.003zm-.861 5.575v-.29h.118v-.06h-.298v.06h.128v.29h.052zm.578 0v-.35h-.09l-.105.25-.105-.25h-.08v.35h.065v-.262l.097.227h.068l.097-.228v.265l.053-.002z"/></g></svg>