<svg xmlns="http://www.w3.org/2000/svg" width="58" height="39"><defs><filter id="a" width="129.6%" height="145.7%" x="-14.8%" y="-22.9%" filterUnits="objectBoundingBox"><feOffset dy="2" in="SourceAlpha" result="shadowOffsetOuter1"/><feGaussianBlur in="shadowOffsetOuter1" result="shadowBlurOuter1" stdDeviation="1"/><feColorMatrix in="shadowBlurOuter1" result="shadowMatrixOuter1" values="0 0 0 0 0 0 0 0 0 0 0 0 0 0 0 0 0 0 0.117385643 0"/><feMerge><feMergeNode in="shadowMatrixOuter1"/><feMergeNode in="SourceGraphic"/></feMerge></filter></defs><g fill="none" fill-rule="evenodd"><path fill="#FFF" fill-rule="nonzero" d="M52.2 35H1.8C.808 35 0 34.165 0 33.134V1.866C0 .836.807 0 1.8 0h50.4c.993 0 1.8.835 1.8 1.866v31.268c0 1.03-.807 1.866-1.8 1.866z" filter="url(#a)" transform="translate(2)"/><path fill="#F0A929" d="M9.052 9.288c0-.682.559-1.24 1.242-1.24H47.69c.683 0 1.242.558 1.242 1.24v15.868c0 .682-.559 1.24-1.242 1.24H10.294a1.244 1.244 0 01-1.242-1.24V9.288z"/><path fill="#FFF" d="M9.052 9.85h39.88v14.744H9.052z"/><path fill="#E21C2A" d="M42.85 13.68a3.315 3.315 0 00-3.313 3.305 3.315 3.315 0 003.312 3.306 3.315 3.315 0 003.312-3.306 3.315 3.315 0 00-3.312-3.306zm-27.299 0a3.315 3.315 0 00-3.312 3.305 3.315 3.315 0 003.312 3.306 3.315 3.315 0 003.312-3.306 3.315 3.315 0 00-3.312-3.306z"/><path fill="#E21C2A" d="M42.59 10.77c-3.067-.07-4.508 1.892-6.6 4.312l-1.973 2.283 3.125 3.734c.744 1.148-.677 2.286-1.558 1.236l-2.89-3.44-2.815 3.258c-.897 1.037-2.301-.122-1.54-1.258l3.055-3.548-2.002-2.384 1.288-1.592 2.036 2.441 1.756-2.038c.861-1 1.74-2.323 2.878-3.004H9.052v12.905h6.616c3.067 0 4.459-1.83 6.494-4.298l1.92-2.328-3.21-3.661c-.77-1.13.623-2.301 1.529-1.272l2.967 3.373 2.74-3.322c.873-1.058 2.303.069 1.57 1.223l-2.974 3.617 2.057 2.338-1.296 1.532-2.048-2.305-1.707 2.077c-.838 1.02-1.687 2.319-2.81 3.026h28.032V10.77h-6.343zm-21.807 6.215c0 2.877-2.35 5.223-5.232 5.223-2.883 0-5.233-2.346-5.233-5.223s2.35-5.223 5.233-5.223c2.882 0 5.232 2.346 5.232 5.223zm22.066 5.223c-2.882 0-5.233-2.346-5.233-5.223s2.351-5.223 5.233-5.223c2.883 0 5.233 2.346 5.233 5.223s-2.35 5.223-5.233 5.223z"/></g></svg>