<svg xmlns="http://www.w3.org/2000/svg" width="58" height="39"><defs><filter id="a" width="129.6%" height="145.7%" x="-14.8%" y="-22.9%" filterUnits="objectBoundingBox"><feOffset dy="2" in="SourceAlpha" result="shadowOffsetOuter1"/><feGaussianBlur in="shadowOffsetOuter1" result="shadowBlurOuter1" stdDeviation="1"/><feColorMatrix in="shadowBlurOuter1" result="shadowMatrixOuter1" values="0 0 0 0 0 0 0 0 0 0 0 0 0 0 0 0 0 0 0.117385643 0"/><feMerge><feMergeNode in="shadowMatrixOuter1"/><feMergeNode in="SourceGraphic"/></feMerge></filter></defs><g fill="none"><path fill="#FFF" d="M52.2 35H1.8C.808 35 0 34.165 0 33.134V1.866C0 .836.807 0 1.8 0h50.4c.993 0 1.8.835 1.8 1.866v31.268c0 1.03-.807 1.866-1.8 1.866z" filter="url(#a)" transform="translate(2)"/><path fill="#369" d="M39.106 15.427c.727 0 1.258.098 1.598.291a.968.968 0 01.509.902c.003.056-.008.13-.016.22-.004.06-.011.115-.02.165l-.013.071-.653 2.877a.469.469 0 01-.383.344l-.006.004-.008.002h-.832a.271.271 0 01-.249-.272l.008-.074v-.003l.001-.002.033-.148-.004-.008-.338.231a2.2 2.2 0 01-.367.207c-.154.068-.3.117-.432.15a2.486 2.486 0 01-.56.055c-.385 0-.702-.11-.945-.33a1.127 1.127 0 01-.365-.865c0-.375.085-.693.257-.955.175-.26.429-.466.769-.62a4.059 4.059 0 011.135-.318c.443-.067.81-.115 1.32-.145.086-.011.115-.047.13-.083.017-.038.015-.082.014-.13a.419.419 0 00-.27-.413c-.181-.077-.454-.117-.812-.117a3.838 3.838 0 00-.84.115c-.303.07-.384.115-.533.162-.063.02-.2.032-.185-.172l.013-.087.108-.459s.052-.347.393-.424c.166-.036.193-.043.459-.084a6.871 6.871 0 011.084-.087zm-6.915-1.405h1.872c.353-.003.705.025 1.053.084.275.046.54.146.778.292a1.4 1.4 0 01.493.537c.12.257.179.539.17.823 0 .75-.304 1.351-.911 1.812-.559.42-1.319.647-2.286.682l-.269.005h-.255a.459.459 0 00-.4.265l-.03.082-.303 1.356a.47.47 0 01-.346.336l-.085.011h-.897a.262.262 0 01-.223-.102.274.274 0 01-.057-.18l.011-.065 1.258-5.59a.472.472 0 01.343-.336l.084-.012h1.872zm11.6.046c.19 0 .31.157.27.347l-1.2 5.54c-.002.01-.01.017-.012.028a.463.463 0 01-.417.32h-.83l-.006-.008c-.168-.018-.272-.161-.236-.338l-.001-.003.05-.22 1.104-5.113.045-.206.013-.03a.46.46 0 01.416-.317zm-4.411 4.009c-.053.001-.455.048-.66.074a3.104 3.104 0 00-.59.136.933.933 0 00-.381.262.704.704 0 00-.13.447c-.001.16.058.275.174.34.116.067.287.1.51.1a1.21 1.21 0 00.466-.103c.122-.052.24-.113.351-.185a.433.433 0 00.142-.19c.063-.256.123-.513.18-.771.024-.14-.011-.11-.062-.11zm-5.56-2.895l-.293.001a.458.458 0 00-.396.266l-.029.082-.27 1.184c-.039.168.051.31.204.342l.069.007h.221c.485 0 .86-.1 1.13-.3.267-.204.402-.488.402-.86 0-.244-.086-.427-.259-.546-.178-.115-.434-.175-.779-.176zm10.881-1.123v.255h.303v.126H44.7v.405c0 .046.003.082.004.11.002.027.01.05.022.073.01.022.027.037.047.047.02.01.05.013.092.013a.352.352 0 00.131-.028h.007v.134a.7.7 0 01-.176.028c-.09 0-.158-.026-.202-.074-.047-.049-.07-.127-.07-.235v-.473h-.1v-.126h.1v-.255h.145zm1.47.23c.096 0 .168.03.214.09a.41.41 0 01.067.248v.576h-.147v-.506c0-.037 0-.073-.004-.11a.234.234 0 00-.021-.085.116.116 0 00-.052-.053.259.259 0 00-.22.014.694.694 0 00-.123.08.68.68 0 01.006.09v.57h-.147v-.506c0-.037-.002-.074-.006-.111a.238.238 0 00-.021-.084.12.12 0 00-.052-.053.223.223 0 00-.096-.018.266.266 0 00-.121.032.74.74 0 00-.122.076v.664h-.145v-.889h.147v.098a.65.65 0 01.137-.09.327.327 0 01.296.006.24.24 0 01.093.106.712.712 0 01.162-.11.376.376 0 01.156-.035z"/><path fill="#036" d="M30.536 15.49c.287-.003.025.438-.02.511l-.007.01-3.564 6.153a.8.8 0 01-.476.34l-.086.009h-.926c-.172 0-.24-.124-.171-.285l.032-.062.792-1.411s.065-.081.006-.542c-.119-.83-.73-4.367-.73-4.367-.038-.166.049-.307.202-.34l.069-.007.799-.001a.505.505 0 01.465.286l.024.07.395 2.453c.012.045.083.122.151 0 .125-.223 1.407-2.466 1.407-2.466.12-.192.371-.35.563-.35h.065c.204 0 .83.002 1.01 0zm-7.682-.067c.728 0 1.26.098 1.599.29a.967.967 0 01.509.903c.004.054-.007.128-.015.22-.007.09-.02.169-.034.235l-.653 2.88a.469.469 0 01-.382.342c-.005.002-.006.004-.014.004h-.128l-.689.003v-.003h-.016c-.173-.02-.277-.166-.24-.344v-.007l.034-.146-.005-.008-.337.23c-.116.08-.24.15-.369.208a2.738 2.738 0 01-.43.15 2.509 2.509 0 01-.562.055c-.383 0-.7-.11-.945-.33a1.135 1.135 0 01-.364-.867c0-.373.086-.69.256-.952.176-.262.43-.467.77-.623.362-.16.745-.267 1.136-.317.443-.066.809-.113 1.32-.144.086-.013.115-.047.129-.083a.273.273 0 00.013-.13.42.42 0 00-.27-.414c-.18-.076-.452-.117-.81-.117a3.868 3.868 0 00-.84.116c-.302.071-.383.115-.531.16-.073.024-.24.037-.176-.258l.11-.458s.052-.347.393-.424c.164-.036.191-.044.459-.085a6.852 6.852 0 011.082-.086zm-6.905-1.422L17.816 14c.354 0 .708.028 1.057.085.274.048.538.148.776.294.21.13.38.315.492.536.123.256.182.539.17.824.001.75-.304 1.353-.913 1.81-.558.418-1.32.646-2.284.681l-.269.005h-.256a.457.457 0 00-.397.266l-.03.081-.308 1.356a.462.462 0 01-.343.339l-.085.01h-.896a.267.267 0 01-.28-.28l.009-.07 1.26-5.587a.471.471 0 01.345-.337l.085-.012L17.816 14zm7.243 4.182c.023-.14-.011-.11-.062-.11a15.72 15.72 0 00-.66.074 3.238 3.238 0 00-.59.135.917.917 0 00-.381.263.705.705 0 00-.131.446c-.001.162.06.276.174.34.116.07.288.101.51.101a1.23 1.23 0 00.467-.103c.122-.052.24-.113.351-.185a.44.44 0 00.142-.19c.054-.22.17-.71.18-.771zm-5.616-3.022l-.293.002a.455.455 0 00-.398.265l-.029.082-.27 1.185c-.038.169.052.31.204.343l.069.007h.22c.485 0 .858-.102 1.128-.303a.993.993 0 00.403-.859c.004-.245-.084-.428-.257-.542-.175-.12-.434-.18-.777-.18z"/></g></svg>