<svg xmlns="http://www.w3.org/2000/svg" width="58" height="39"><defs><filter id="a" width="129.6%" height="145.7%" x="-14.8%" y="-22.9%" filterUnits="objectBoundingBox"><feOffset dy="2" in="SourceAlpha" result="shadowOffsetOuter1"/><feGaussianBlur in="shadowOffsetOuter1" result="shadowBlurOuter1" stdDeviation="1"/><feColorMatrix in="shadowBlurOuter1" result="shadowMatrixOuter1" values="0 0 0 0 0 0 0 0 0 0 0 0 0 0 0 0 0 0 0.117385643 0"/><feMerge><feMergeNode in="shadowMatrixOuter1"/><feMergeNode in="SourceGraphic"/></feMerge></filter></defs><g fill="none"><g fill="#FFF" filter="url(#a)"><path d="M52.2 35H1.8C.808 35 0 34.165 0 33.134V1.866C0 .836.807 0 1.8 0h50.4c.993 0 1.8.835 1.8 1.866v31.268c0 1.03-.807 1.866-1.8 1.866z"/></g><path fill="#303992" d="M18.492 11.293v11.625h3.638V18.57s2.574.088 3.106 0c.533-.089 1.775-.267 2.485-1.42.71-1.154.621-2.041.621-2.751s-.177-1.952-1.152-2.485c-.977-.532-1.332-.621-2.574-.621h-6.123"/><path fill="#FFF" d="M22.13 13.689v2.573h1.686c.355 0 1.243-.355 1.154-1.242-.089-.887-.444-1.242-.887-1.331-.444-.089-1.953 0-1.953 0"/><path fill="#F6861E" d="M29.363 11.448v11.603h9.85v-2.507h-6.168V17.86h5.591v-2.352h-5.591V14.31h6.168v-2.862h-9.85"/><path fill="#303992" d="M40.544 15.153h1.331v-2.485l2.396 3.195V11.25h-3.727v3.904m0 2.485h1.331v2.396l2.396-3.195v6.035h-3.727v-5.237m5.258-5.789h.143c.092 0 .15-.003.173-.011a.11.11 0 00.054-.04.13.13 0 00.02-.072.117.117 0 00-.026-.078.12.12 0 00-.072-.038 1.782 1.782 0 00-.141-.003h-.15v.243zm-.193.552v-.956h.406a.7.7 0 01.223.026.22.22 0 01.111.092.273.273 0 01.042.15.253.253 0 01-.064.178.3.3 0 01-.188.088.454.454 0 01.103.08c.027.03.063.081.11.155l.116.187h-.23l-.14-.208a1.265 1.265 0 00-.102-.14.135.135 0 00-.058-.04.316.316 0 00-.097-.011h-.039v.399h-.193"/><path fill="#303992" d="M46.039 11.178a.746.746 0 10.001 1.491.746.746 0 00-.001-1.491zm0 1.668a.924.924 0 010-1.846.924.924 0 010 1.846m-23.953.799v2.573h.909c.654 0 1.092-.047 1.313-.142.22-.095.393-.244.518-.446.126-.202.188-.437.188-.705 0-.33-.088-.602-.263-.816a1.126 1.126 0 00-.668-.403c-.198-.04-.596-.061-1.195-.061h-.802zm-3.578 9.317V11.25h4.474c1.528 0 2.523.06 2.987.18.713.18 1.31.57 1.79 1.172.482.602.722 1.38.722 2.333 0 .736-.139 1.354-.416 1.855a3.316 3.316 0 01-1.056 1.181 3.712 3.712 0 01-1.303.568c-.6.114-1.468.172-2.605.172h-.928v4.252h-3.665M7 19.058l3.372-.178c.133.61.314 1.22.72 1.536.406.316.62.474 1.352.474.804 0 .878-.149 1.284-.446a.998.998 0 00.41-.836.824.824 0 00-.222-.591 2.229 2.229 0 00-1.041-.59c-2.511-.558-3.57-1.067-4.243-1.528-.93-.64-1.13-1.35-1.13-2.487 0-1.026.492-1.71 1.297-2.41.805-.698 1.876-.87 3.567-.87 1.61 0 2.807.264 3.59.792.782.528.998 1.62 1.294 2.652l-3.373.178c-.125-.46-.225-.934-.576-1.18-.35-.244-.755-.418-1.198-.418-.444 0-.645.078-1 .308-.236.163-.354.375-.354.635 0 .223.104.413.31.569.281.208.63.324 2.287.703 1.658.38 2.639.933 3.296 1.483.65.557.975 1.334.975 2.33 0 1.085-.45 2.018-1.352 2.798-.9.78-2.056 1.171-3.821 1.171-1.603 0-3.05-.327-3.984-.981-.934-.654-1.172-1.992-1.46-3.114"/></g></svg>