<svg xmlns="http://www.w3.org/2000/svg" width="58" height="39"><defs><filter id="a" width="129.6%" height="145.7%" x="-14.8%" y="-22.9%" filterUnits="objectBoundingBox"><feOffset dy="2" in="SourceAlpha" result="shadowOffsetOuter1"/><feGaussianBlur in="shadowOffsetOuter1" result="shadowBlurOuter1" stdDeviation="1"/><feColorMatrix in="shadowBlurOuter1" result="shadowMatrixOuter1" values="0 0 0 0 0 0 0 0 0 0 0 0 0 0 0 0 0 0 0.117385643 0"/><feMerge><feMergeNode in="shadowMatrixOuter1"/><feMergeNode in="SourceGraphic"/></feMerge></filter></defs><g fill="none"><path fill="#FFF" d="M52.2 35H1.8C.808 35 0 34.165 0 33.134V1.866C0 .836.807 0 1.8 0h50.4c.993 0 1.8.835 1.8 1.866v31.268c0 1.03-.807 1.866-1.8 1.866z" filter="url(#a)" transform="translate(2)"/><path fill="#0066B2" d="M25.3 22.479h-2.69l1.682-10.294h2.692L25.3 22.479zm-4.955-10.294l-2.567 7.08-.305-1.526-.905-4.629s-.11-.925-1.276-.925H11.05l-.05.173s1.298.269 2.816 1.177l2.338 8.942h2.804l4.283-10.292h-2.896zm18.208 6.653l1.415-3.854.797 3.854h-2.212zm2.962 3.64h2.472l-2.154-10.293h-2.164c-1 0-1.243.766-1.243.766l-4.014 9.528h2.805l.561-1.53H41.2l.317 1.53-.001-.002zm-6.894-7.819l.384-2.21S33.821 12 32.585 12c-1.336 0-4.508.581-4.508 3.408 0 2.66 3.724 2.692 3.724 4.088 0 1.397-3.34 1.148-4.442.266l-.402 2.312s1.204.581 3.04.581c1.837 0 4.609-.948 4.609-3.524 0-2.676-3.757-2.926-3.757-4.089 0-1.164 2.622-1.014 3.773-.383h-.001z"/><path fill="#F9A533" d="M17.475 17.74l-.907-4.63s-.11-.925-1.276-.925H11.05l-.05.173s2.04.422 3.995 1.998c1.87 1.507 2.48 3.383 2.48 3.383"/></g></svg>